<?xml version="1.0" encoding="utf-8"?>
<!-- Generator: Adobe Illustrator 23.0.1, SVG Export Plug-In . SVG Version: 6.00 Build 0)  -->
<svg version="1.1" xmlns="http://www.w3.org/2000/svg" xmlns:xlink="http://www.w3.org/1999/xlink" x="0px" y="0px"
	 viewBox="0 0 612 612" style="enable-background:new 0 0 612 612;" xml:space="preserve">
<style type="text/css">
	.st0{opacity:0.65;}
	.st1{fill:#ADBFC7;}
	.st2{opacity:0.54;}
	.st3{fill:#FFFFFF;}
</style>
<g id="cloud">
	<g>
		<g class="st0">
			<path class="st1" d="M451.58,305.3c6.98-5.13,9.11-15.82,4.61-23.23c-4.49-7.41-14.95-10.47-22.73-6.65
				c10.17-12.7,1.11-31.41-9.18-44.01c-17.71-21.66-40.42-41-67.85-46.53c-27.43-5.53-59.72,6.59-70.14,32.56
				c-8.63-5.96-22.67,2.26-21.69,12.71c2.7-1.67,0-5.73-2.66-7.46c-18.42-11.96-40.23-21.33-61.88-17.64
				c-25.25,4.3-45.73,28.11-46.22,53.72s19.08,50.17,44.15,55.43c-2.27,4.83-4.59,10.15-3.29,15.32s8.18,9,12.15,5.44
				c-9.59,3.11-16.19,12.63-17.79,22.59c-1.59,9.96,1.17,20.19,5.65,29.23c13.12,26.47,41.96,44.37,71.5,44.37
				c29.55,0,58.38-17.9,71.5-44.38c5.08,6.27,14.4,8.68,21.89,5.68c7.49-3,12.55-11.19,11.89-19.23
				c17.97,11.38,43.33,9.42,59.33-4.58c16-14,21.31-38.88,12.42-58.2"/>
			<g>
				<path class="st1" d="M451.83,305.73c7.1-5.45,9.52-16.12,4.79-23.91c-4.72-7.78-15.29-10.6-23.41-6.83
					c0.23,0.23,0.46,0.46,0.68,0.68c9.25-11.98,2.48-27.97-5.03-38.96c-8.65-12.65-20.2-24.11-32.37-33.37
					c-12.31-9.36-26.56-16.7-41.92-19.31c-12.98-2.2-26.65-0.63-38.8,4.44c-13.24,5.53-24.47,15.41-29.97,28.83
					c0.24-0.1,0.49-0.2,0.73-0.3c-9.21-6.01-23.18,2.16-22.44,13.14c0.03,0.46,0.51,0.62,0.85,0.35c5.84-4.54-7.77-11.41-10.3-12.87
					c-7.96-4.58-16.39-8.49-25.25-11.01c-15.65-4.46-32.46-3.98-46.79,4.24c-12.6,7.23-22.41,19.31-26.81,33.16
					c-4.43,13.95-2.57,28.99,4.41,41.78c7.83,14.34,21.58,25.38,37.64,28.87c-0.1-0.24-0.2-0.49-0.3-0.73
					c-2.6,5.57-6.01,13.21-1.8,18.87c2.63,3.54,7.71,5.49,11.44,2.5c0.39-0.31-0.03-0.99-0.49-0.84
					c-15.49,5.31-20.68,22.96-17.68,37.73c3.25,15.94,13.49,30.39,25.92,40.6c11.88,9.75,26.43,16.27,41.7,18.22
					c15.27,1.95,30.86-0.97,44.63-7.77c15.75-7.78,28.97-20.5,36.86-36.24c-0.26,0.03-0.52,0.07-0.79,0.1
					c5.36,6.33,14.65,8.91,22.43,5.78c7.78-3.13,12.71-11.4,12.2-19.69c-0.25,0.14-0.5,0.29-0.75,0.43
					c14.44,8.98,33.13,9.76,48.52,2.7c15.4-7.07,25.54-22.06,27.79-38.7c1.26-9.34,0-18.86-3.87-27.47
					c-0.26-0.59-1.13-0.08-0.86,0.5c6.73,14.93,5.2,32.88-3.29,46.79c-8.74,14.33-24.65,22.48-41.28,22.62
					c-9.34,0.08-18.55-2.37-26.49-7.31c-0.31-0.19-0.78,0.05-0.75,0.43c0.48,7.9-4.15,15.78-11.59,18.76
					c-7.44,2.98-16.22,0.48-21.34-5.56c-0.2-0.24-0.65-0.17-0.79,0.1c-13.36,26.63-42.29,44.57-72.17,44.12
					c-29.87-0.45-58.86-19.22-71.11-46.53c-4.1-9.14-6.44-19.72-3.77-29.6c2.3-8.52,8.25-16.14,16.75-19.06
					c-0.16-0.28-0.32-0.56-0.49-0.84c-3.83,3.07-9.26-0.19-10.93-4.12c-2.22-5.23,0.64-11.31,2.85-16.04
					c0.13-0.27,0.04-0.66-0.3-0.73c-27.1-5.89-47.47-33.8-43.21-61.52c2.07-13.49,9.52-25.91,19.92-34.66
					c11.46-9.64,25.93-13.89,40.8-12.53c9.67,0.88,19.07,3.91,27.85,7.96c4.18,1.92,8.24,4.09,12.2,6.43
					c1.9,1.12,3.81,2.25,5.64,3.49c1.78,1.21,5.68,4.77,2.93,6.91c0.28,0.12,0.57,0.24,0.85,0.35
					c-0.69-10.23,12.34-17.88,20.94-12.27c0.3,0.19,0.62-0.02,0.73-0.3c9.94-24.25,38.14-35.6,63-33.18
					c29.8,2.9,54.74,23.97,73.14,46.14c9.52,11.47,21.04,30.5,10.12,44.63c-0.34,0.44,0.29,0.87,0.68,0.68
					c7.62-3.54,17.63-0.82,22.05,6.47c4.41,7.28,2.23,17.42-4.43,22.54C450.82,305.26,451.32,306.13,451.83,305.73L451.83,305.73z"
					/>
			</g>
		</g>
		<g class="st2">
			<g>
				<path class="st3" d="M165.99,261.23c-0.58-17.4,11.6-33.91,28.4-38.48c0.62-0.17,0.36-1.13-0.27-0.96
					c-17.22,4.69-29.72,21.61-29.13,39.45C165.01,261.87,166.02,261.87,165.99,261.23L165.99,261.23z"/>
			</g>
		</g>
		<g class="st2">
			<g>
				<path class="st3" d="M406.95,228.41c-12.92-16.47-33.29-26.28-54.22-26.15c-0.64,0-0.64,1,0,1
					c20.69-0.13,40.75,9.58,53.51,25.85C406.63,229.62,407.34,228.91,406.95,228.41L406.95,228.41z"/>
			</g>
		</g>
		<g class="st2">
			<g>
				<path class="st3" d="M397.17,370.03c16.78,1.66,33.64-8.25,40.34-23.72c0.25-0.58-0.61-1.09-0.86-0.5
					c-6.57,15.19-23,24.86-39.48,23.23C396.53,368.97,396.53,369.97,397.17,370.03L397.17,370.03z"/>
			</g>
		</g>
		<g class="st2">
			<g>
				<path class="st3" d="M219.18,386.17c7.39,15.97,25.1,25.99,42.59,24.11c0.63-0.07,0.64-1.07,0-1
					c-17.18,1.85-34.47-7.93-41.73-23.61C219.78,385.09,218.92,385.59,219.18,386.17L219.18,386.17z"/>
			</g>
		</g>
	</g>
</g>
<g id="rain1">
	<g class="st0">
		<g>
			<path class="st1" d="M241.6,465.43c4.71-4.71,9.42-9.42,14.13-14.13c0.46-0.46-0.25-1.16-0.71-0.71
				c-4.71,4.71-9.42,9.42-14.13,14.13C240.44,465.17,241.14,465.88,241.6,465.43L241.6,465.43z"/>
		</g>
	</g>
	<g class="st0">
		<g>
			<path class="st1" d="M198.64,438.57c4.71-4.71,9.42-9.42,14.13-14.13c0.46-0.46-0.25-1.16-0.71-0.71
				c-4.71,4.71-9.42,9.42-14.13,14.13C197.48,438.32,198.19,439.03,198.64,438.57L198.64,438.57z"/>
		</g>
	</g>
	<g class="st0">
		<g>
			<path class="st1" d="M167.85,531.18c15.82-15.82,31.64-31.64,47.46-47.46c0.46-0.46-0.25-1.16-0.71-0.71
				c-15.82,15.82-31.64,31.64-47.46,47.46C166.68,530.93,167.39,531.64,167.85,531.18L167.85,531.18z"/>
		</g>
	</g>
	<g class="st0">
		<g>
			<path class="st1" d="M278.93,505.4c28.11-28.11,56.21-56.21,84.32-84.32c7.96-7.96,15.93-15.93,23.89-23.89
				c0.46-0.46-0.25-1.16-0.71-0.71c-28.11,28.11-56.21,56.21-84.32,84.32c-7.96,7.96-15.93,15.93-23.89,23.89
				C277.77,505.15,278.47,505.85,278.93,505.4L278.93,505.4z"/>
		</g>
	</g>
	<g class="st0">
		<g>
			<path class="st1" d="M293.7,462.3c13.11-13.11,26.22-26.22,39.33-39.33c0.46-0.46-0.25-1.16-0.71-0.71
				c-13.11,13.11-26.22,26.22-39.33,39.33C292.54,462.05,293.25,462.76,293.7,462.3L293.7,462.3z"/>
		</g>
	</g>
	<g class="st0">
		<g>
			<path class="st1" d="M224.83,531.18c9.1-9.1,18.21-18.21,27.31-27.31c0.46-0.46-0.25-1.16-0.71-0.71
				c-9.1,9.1-18.21,18.21-27.31,27.31C223.66,530.93,224.37,531.64,224.83,531.18L224.83,531.18z"/>
		</g>
	</g>
	<g class="st0">
		<g>
			<path class="st1" d="M167.85,493.1c20.53-20.53,41.06-41.06,61.59-61.59c0.46-0.46-0.25-1.16-0.71-0.71
				c-20.53,20.53-41.06,41.06-61.59,61.59C166.68,492.85,167.39,493.56,167.85,493.1L167.85,493.1z"/>
		</g>
	</g>
</g>
<g id="rain2">
	<g class="st0">
		<g>
			<path class="st1" d="M290.37,430.04c4.71-4.71,9.42-9.42,14.13-14.13c0.46-0.46-0.25-1.16-0.71-0.71
				c-4.71,4.71-9.42,9.42-14.13,14.13C289.21,429.79,289.92,430.49,290.37,430.04L290.37,430.04z"/>
		</g>
	</g>
	<g class="st0">
		<g>
			<path class="st1" d="M325.97,415.27c4.71-4.71,9.42-9.42,14.13-14.13c0.46-0.46-0.25-1.16-0.71-0.71
				c-4.71,4.71-9.42,9.42-14.13,14.13C324.8,415.01,325.51,415.72,325.97,415.27L325.97,415.27z"/>
		</g>
	</g>
	<g class="st0">
		<g>
			<path class="st1" d="M242.91,469.37c15.82-15.82,31.64-31.64,47.46-47.46c0.46-0.46-0.25-1.16-0.71-0.71
				c-15.82,15.82-31.64,31.64-47.46,47.46C241.75,469.12,242.45,469.82,242.91,469.37L242.91,469.37z"/>
		</g>
	</g>
	<g class="st0">
		<g>
			<path class="st1" d="M116.62,516.41c28.11-28.11,56.21-56.21,84.32-84.32c7.96-7.96,15.93-15.93,23.89-23.89
				c0.46-0.46-0.25-1.16-0.71-0.71c-28.11,28.11-56.21,56.21-84.32,84.32c-7.96,7.96-15.93,15.93-23.89,23.89
				C115.46,516.16,116.16,516.86,116.62,516.41L116.62,516.41z"/>
		</g>
	</g>
	<g class="st0">
		<g>
			<path class="st1" d="M313.37,442.64c13.11-13.11,26.22-26.22,39.33-39.33c0.46-0.46-0.25-1.16-0.71-0.71
				c-13.11,13.11-26.22,26.22-39.33,39.33C312.2,442.39,312.91,443.09,313.37,442.64L313.37,442.64z"/>
		</g>
	</g>
	<g class="st0">
		<g>
			<path class="st1" d="M211.17,449.21c9.1-9.1,18.21-18.21,27.31-27.31c0.46-0.46-0.25-1.16-0.71-0.71
				c-9.1,9.1-18.21,18.21-27.31,27.31C210.01,448.96,210.72,449.67,211.17,449.21L211.17,449.21z"/>
		</g>
	</g>
	<g class="st0">
		<g>
			<path class="st1" d="M210.25,476.43c20.53-20.53,41.06-41.06,61.59-61.59c0.46-0.46-0.25-1.16-0.71-0.71
				c-20.53,20.53-41.06,41.06-61.59,61.59C209.09,476.18,209.8,476.89,210.25,476.43L210.25,476.43z"/>
		</g>
	</g>
</g>
<g id="rain3">
	<g class="st0">
		<g>
			<path class="st1" d="M199.07,458.24c4.71-4.71,9.42-9.42,14.13-14.13c0.46-0.46-0.25-1.16-0.71-0.71
				c-4.71,4.71-9.42,9.42-14.13,14.13C197.9,457.99,198.61,458.69,199.07,458.24L199.07,458.24z"/>
		</g>
	</g>
	<g class="st0">
		<g>
			<path class="st1" d="M153.75,479.28c23.69-23.69,47.39-47.39,71.08-71.08c0.46-0.46-0.25-1.16-0.71-0.71
				c-23.69,23.69-47.39,47.39-71.08,71.08C152.58,479.03,153.29,479.74,153.75,479.28L153.75,479.28z"/>
		</g>
	</g>
	<g class="st0">
		<g>
			<path class="st1" d="M116.62,516.41c8.33-8.33,16.66-16.66,24.99-24.99c0.46-0.46-0.25-1.16-0.71-0.71
				c-8.33,8.33-16.66,16.66-24.99,24.99C115.46,516.16,116.16,516.86,116.62,516.41L116.62,516.41z"/>
		</g>
	</g>
	<g class="st0">
		<g>
			<path class="st1" d="M385.36,402.38c8.32-8.32,16.65-16.65,24.97-24.97c0.46-0.46-0.25-1.16-0.71-0.71
				c-8.32,8.32-16.65,16.65-24.97,24.97C384.2,402.13,384.9,402.83,385.36,402.38L385.36,402.38z"/>
		</g>
	</g>
	<g class="st0">
		<g>
			<path class="st1" d="M302.13,485.61c11.48-11.48,22.96-22.96,34.44-34.44c0.46-0.46-0.25-1.16-0.71-0.71
				c-11.48,11.48-22.96,22.96-34.44,34.44C300.96,485.36,301.67,486.07,302.13,485.61L302.13,485.61z"/>
		</g>
	</g>
	<g class="st0">
		<g>
			<path class="st1" d="M197.86,484.41c25.4-25.4,50.81-50.81,76.21-76.21c0.46-0.46-0.25-1.16-0.71-0.71
				c-25.4,25.4-50.81,50.81-76.21,76.21C196.7,484.16,197.41,484.86,197.86,484.41L197.86,484.41z"/>
		</g>
	</g>
	<g class="st0">
		<g>
			<path class="st1" d="M165.87,516.41c4.88-4.88,9.76-9.76,14.64-14.64c0.46-0.46-0.25-1.16-0.71-0.71
				c-4.88,4.88-9.76,9.76-14.64,14.64C164.7,516.16,165.41,516.86,165.87,516.41L165.87,516.41z"/>
		</g>
	</g>
	<g class="st0">
		<g>
			<path class="st1" d="M341.59,423.33c13.56-13.56,27.13-27.13,40.69-40.69c0.46-0.46-0.25-1.16-0.71-0.71
				c-13.56,13.56-27.13,27.13-40.69,40.69C340.43,423.08,341.13,423.78,341.59,423.33L341.59,423.33z"/>
		</g>
	</g>
	<g class="st0">
		<g>
			<path class="st1" d="M274.07,490.84c8.94-8.94,17.89-17.89,26.83-26.83c0.46-0.46-0.25-1.16-0.71-0.71
				c-8.94,8.94-17.89,17.89-26.83,26.83C272.91,490.59,273.62,491.3,274.07,490.84L274.07,490.84z"/>
		</g>
	</g>
	<g class="st0">
		<g>
			<path class="st1" d="M339.41,407.11c9.9-9.9,19.8-19.8,29.7-29.7c0.46-0.46-0.25-1.16-0.71-0.71c-9.9,9.9-19.8,19.8-29.7,29.7
				C338.25,406.86,338.96,407.56,339.41,407.11L339.41,407.11z"/>
		</g>
	</g>
	<g class="st0">
		<g>
			<path class="st1" d="M260.91,485.61c16.27-16.27,32.53-32.53,48.8-48.8c0.46-0.46-0.25-1.16-0.71-0.71
				c-16.27,16.27-32.53,32.53-48.8,48.8C259.75,485.36,260.46,486.07,260.91,485.61L260.91,485.61z"/>
		</g>
	</g>
	<g class="st0">
		<g>
			<path class="st1" d="M262.13,451.17c13.11-13.11,26.22-26.22,39.33-39.33c0.46-0.46-0.25-1.16-0.71-0.71
				c-13.11,13.11-26.22,26.22-39.33,39.33C260.97,450.92,261.67,451.63,262.13,451.17L262.13,451.17z"/>
		</g>
	</g>
</g>
</svg>
